<svg width="16" height="16" viewBox="0 0 16 16" fill="none" xmlns="http://www.w3.org/2000/svg">
<path d="M1.79486 13.3595C2.6282 12.595 3.56445 11.9782 4.60363 11.509C5.6428 11.0398 6.77421 10.8052 7.99786 10.8052C9.22153 10.8052 10.3537 11.0381 11.3943 11.504C12.4349 11.9699 13.3719 12.585 14.2052 13.3495V1.79474H1.79486V13.3595ZM8.04109 9.3038C8.85701 9.3038 9.54524 9.02373 10.1058 8.46359C10.6663 7.90347 10.9466 7.21544 10.9466 6.39951C10.9466 5.58359 10.6665 4.89619 10.1064 4.33732C9.54624 3.77845 8.85822 3.49901 8.0423 3.49901C7.22638 3.49901 6.53816 3.77824 5.97761 4.33672C5.41707 4.89519 5.1368 5.58238 5.1368 6.3983C5.1368 7.21423 5.41687 7.90246 5.97701 8.46299C6.53715 9.02353 7.22518 9.3038 8.04109 9.3038ZM1.79486 15.6244C1.41154 15.6244 1.07915 15.4837 0.797676 15.2023C0.516217 14.9208 0.375488 14.5884 0.375488 14.2051V1.79474C0.375488 1.41006 0.516217 1.07649 0.797676 0.794049C1.07915 0.511591 1.41154 0.370361 1.79486 0.370361H14.2052C14.5899 0.370361 14.9234 0.511591 15.2059 0.794049C15.4883 1.07649 15.6296 1.41006 15.6296 1.79474V14.2051C15.6296 14.5884 15.4883 14.9208 15.2059 15.2023C14.9234 15.4837 14.5899 15.6244 14.2052 15.6244H1.79486ZM2.89586 14.2051H13.1042V14.0425C12.3542 13.4036 11.5486 12.9226 10.6875 12.5996C9.82642 12.2765 8.93059 12.1149 8.00003 12.1149C7.06947 12.1149 6.17364 12.2765 5.31253 12.5996C4.45142 12.9226 3.64586 13.4036 2.89586 14.0425V14.2051ZM8.03995 7.99901C7.59636 7.99901 7.21991 7.84341 6.91059 7.53222C6.60126 7.22104 6.44659 6.84317 6.44659 6.39861C6.44659 5.95406 6.60184 5.57712 6.91234 5.2678C7.22284 4.95847 7.59988 4.8038 8.04345 4.8038C8.48703 4.8038 8.86348 4.95905 9.1728 5.26955C9.48213 5.58005 9.6368 5.95709 9.6368 6.40067C9.6368 6.84424 9.48155 7.22152 9.17105 7.53251C8.86055 7.84351 8.48352 7.99901 8.03995 7.99901Z" fill="#344054"/>
</svg>
