<svg width="16" height="16" viewBox="0 0 16 16" fill="none" xmlns="http://www.w3.org/2000/svg">
<path d="M1.79486 13.3598C2.6282 12.5953 3.56445 11.9784 4.60363 11.5092C5.6428 11.04 6.77421 10.8054 7.99786 10.8054C9.22153 10.8054 10.3537 11.0383 11.3943 11.5042C12.4349 11.9701 13.3719 12.5853 14.2052 13.3498V1.79498H1.79486V13.3598ZM8.04109 9.30404C8.85701 9.30404 9.54524 9.02397 10.1058 8.46384C10.6663 7.90371 10.9466 7.21568 10.9466 6.39975C10.9466 5.58383 10.6665 4.89644 10.1064 4.33756C9.54624 3.77869 8.85822 3.49925 8.0423 3.49925C7.22638 3.49925 6.53816 3.77849 5.97761 4.33696C5.41707 4.89543 5.1368 5.58263 5.1368 6.39854C5.1368 7.21447 5.41687 7.9027 5.97701 8.46323C6.53715 9.02377 7.22518 9.30404 8.04109 9.30404ZM1.79486 15.6247C1.41154 15.6247 1.07915 15.484 0.797676 15.2025C0.516217 14.921 0.375488 14.5886 0.375488 14.2053V1.79498C0.375488 1.4103 0.516217 1.07674 0.797676 0.794293C1.07915 0.511835 1.41154 0.370605 1.79486 0.370605H14.2052C14.5899 0.370605 14.9234 0.511835 15.2059 0.794293C15.4883 1.07674 15.6296 1.4103 15.6296 1.79498V14.2053C15.6296 14.5886 15.4883 14.921 15.2059 15.2025C14.9234 15.484 14.5899 15.6247 14.2052 15.6247H1.79486ZM2.89586 14.2053H13.1042V14.0427C12.3542 13.4038 11.5486 12.9228 10.6875 12.5998C9.82642 12.2767 8.93059 12.1152 8.00003 12.1152C7.06947 12.1152 6.17364 12.2767 5.31253 12.5998C4.45142 12.9228 3.64586 13.4038 2.89586 14.0427V14.2053ZM8.03995 7.99925C7.59636 7.99925 7.21991 7.84366 6.91059 7.53246C6.60126 7.22128 6.44659 6.84341 6.44659 6.39886C6.44659 5.9543 6.60184 5.57736 6.91234 5.26804C7.22284 4.95871 7.59988 4.80404 8.04345 4.80404C8.48703 4.80404 8.86348 4.95929 9.1728 5.26979C9.48213 5.58029 9.6368 5.95733 9.6368 6.40092C9.6368 6.84449 9.48155 7.22177 9.17105 7.53275C8.86055 7.84375 8.48352 7.99925 8.03995 7.99925Z" fill="#0065D9"/>
</svg>
