<svg width="13" height="12" viewBox="0 0 13 12" fill="none" xmlns="http://www.w3.org/2000/svg">
<path d="M12.5268 5.36394H2.73161L8.59433 0.274658C8.68808 0.192627 8.63116 0.0402832 8.50728 0.0402832H7.02569C6.9604 0.0402832 6.89846 0.0637206 6.84991 0.105573L0.52346 5.59497C0.465517 5.6452 0.419047 5.70729 0.387198 5.77705C0.35535 5.8468 0.338867 5.92259 0.338867 5.99927C0.338867 6.07595 0.35535 6.15174 0.387198 6.22149C0.419047 6.29124 0.465517 6.35334 0.52346 6.40356L6.88674 11.9264C6.91185 11.9482 6.94199 11.9599 6.97379 11.9599H8.5056C8.62949 11.9599 8.68641 11.8059 8.59266 11.7256L2.73161 6.63627H12.5268C12.6005 6.63627 12.6607 6.576 12.6607 6.50234V5.49787C12.6607 5.42421 12.6005 5.36394 12.5268 5.36394Z" fill="white"/>
</svg>
