<svg width="14" height="17" viewBox="0 0 14 17" fill="none" xmlns="http://www.w3.org/2000/svg">
<path d="M1.6354 15.1503H12.3695L11.0832 6.17792H2.918L1.6354 15.1503ZM6.99998 4.75852C7.34419 4.75852 7.63276 4.64205 7.86569 4.40911C8.09863 4.17617 8.2151 3.88761 8.2151 3.5434C8.2151 3.19919 8.09865 2.91145 7.86575 2.68017C7.63286 2.44889 7.34427 2.33325 6.99998 2.33325C6.65577 2.33325 6.36803 2.44946 6.13675 2.68188C5.90547 2.91431 5.78983 3.20231 5.78983 3.54588C5.78983 3.88697 5.90547 4.17436 6.13675 4.40802C6.36803 4.64169 6.65577 4.75852 6.99998 4.75852ZM9.28123 4.75852H11.0869C11.4477 4.75852 11.7624 4.87334 12.031 5.10296C12.2996 5.33257 12.4563 5.62703 12.5013 5.98633L13.7681 14.9587C13.8303 15.3868 13.7218 15.7632 13.4426 16.0878C13.1634 16.4124 12.8057 16.5746 12.3695 16.5746H1.6354C1.19778 16.5746 0.838909 16.4124 0.558771 16.0878C0.278632 15.7632 0.169659 15.3868 0.231854 14.9587L1.49862 5.98633C1.54361 5.62703 1.70039 5.33257 1.96896 5.10296C2.23753 4.87334 2.55387 4.75852 2.918 4.75852H4.72371C4.61592 4.57072 4.5359 4.37829 4.48367 4.18123C4.43143 3.98417 4.40531 3.77156 4.40531 3.5434C4.40531 2.82543 4.65751 2.21349 5.1619 1.70758C5.66627 1.20168 6.27897 0.94873 6.99998 0.94873C7.72099 0.94873 8.33452 1.20168 8.84056 1.70758C9.3466 2.21349 9.59963 2.82543 9.59963 3.5434C9.59963 3.77341 9.57267 3.98649 9.51877 4.18263C9.46488 4.37875 9.3857 4.57072 9.28123 4.75852Z" fill="#344054"/>
</svg>
