<svg width="18" height="18" viewBox="0 0 18 18" fill="none" xmlns="http://www.w3.org/2000/svg">
<path d="M5.60716 1.67858H5.42859C5.5268 1.67858 5.60716 1.59823 5.60716 1.50001V1.67858H12.3929V1.50001C12.3929 1.59823 12.4732 1.67858 12.5714 1.67858H12.3929V3.28573H14V1.50001C14 0.712067 13.3594 0.0714417 12.5714 0.0714417H5.42859C4.64064 0.0714417 4.00002 0.712067 4.00002 1.50001V3.28573H5.60716V1.67858ZM16.8572 3.28573H1.14287C0.747785 3.28573 0.428589 3.60492 0.428589 4.00001V4.7143C0.428589 4.81251 0.508946 4.89287 0.60716 4.89287H1.95537L2.50671 16.567C2.54243 17.3281 3.17189 17.9286 3.93305 17.9286H14.067C14.8304 17.9286 15.4576 17.3304 15.4933 16.567L16.0447 4.89287H17.3929C17.4911 4.89287 17.5714 4.81251 17.5714 4.7143V4.00001C17.5714 3.60492 17.2523 3.28573 16.8572 3.28573ZM13.8951 16.3214H4.10493L3.56475 4.89287H14.4353L13.8951 16.3214Z" fill="#344054"/>
</svg>
