<svg width="14" height="14" viewBox="0 0 14 14" fill="none" xmlns="http://www.w3.org/2000/svg">
<path d="M1.2667 6.86996C1.28337 6.14163 1.43337 5.43497 1.71503 4.76997C2.00336 4.08664 2.41669 3.47498 2.94336 2.94665C3.47002 2.41832 4.08335 2.00499 4.76668 1.71666C5.47334 1.41833 6.22334 1.26666 6.99833 1.26666C7.77333 1.26666 8.52332 1.41833 9.22832 1.71666C9.90969 2.0044 10.5284 2.42218 11.05 2.94665C11.215 3.11165 11.37 3.28665 11.5133 3.46998L10.51 4.25331C10.4901 4.26867 10.475 4.28931 10.4664 4.31288C10.4577 4.33644 10.4559 4.36197 10.4611 4.38652C10.4664 4.41107 10.4784 4.43364 10.4959 4.45165C10.5134 4.46966 10.5356 4.48236 10.56 4.48831L13.4883 5.20497C13.5716 5.22497 13.6533 5.16164 13.6533 5.07664L13.6666 2.06165C13.6666 1.94999 13.5383 1.88666 13.4516 1.95666L12.5116 2.69165C11.23 1.05166 9.23665 0 6.99667 0C3.17836 0 0.0717079 3.05998 4.16764e-05 6.86329C-0.000403163 6.88108 0.00271686 6.89878 0.009218 6.91534C0.0157191 6.9319 0.0254698 6.947 0.0378955 6.95974C0.0503211 6.97247 0.0651704 6.98259 0.0815683 6.9895C0.0979661 6.99641 0.115581 6.99996 0.133374 6.99996H1.13337C1.2067 6.99996 1.26503 6.94163 1.2667 6.86996ZM13.8666 6.99996H12.8666C12.7933 6.99996 12.735 7.05829 12.7333 7.12996C12.7166 7.85829 12.5666 8.56495 12.285 9.22995C11.9966 9.91327 11.5833 10.5266 11.0566 11.0533C10.5251 11.587 9.89307 12.0103 9.19711 12.2986C8.50115 12.587 7.75499 12.7347 7.00167 12.7333C6.24859 12.7347 5.5027 12.5869 4.80701 12.2986C4.11133 12.0103 3.47963 11.587 2.94836 11.0533C2.78336 10.8883 2.62836 10.7133 2.48503 10.5299L3.48835 9.74661C3.50821 9.73125 3.52332 9.7106 3.53196 9.68704C3.5406 9.66347 3.54241 9.63795 3.53719 9.6134C3.53196 9.58885 3.51992 9.56628 3.50243 9.54827C3.48495 9.53026 3.46274 9.51756 3.43835 9.51161L0.510039 8.79495C0.426706 8.77495 0.34504 8.83828 0.34504 8.92328L0.333373 11.9399C0.333373 12.0516 0.461706 12.1149 0.548372 12.0449L1.48837 11.3099C2.77003 12.9483 4.76335 13.9999 7.00333 13.9999C10.8233 13.9999 13.9283 10.9383 14 7.13662C14.0004 7.11884 13.9973 7.10114 13.9908 7.08458C13.9843 7.06801 13.9745 7.05292 13.9621 7.04018C13.9497 7.02745 13.9348 7.01733 13.9184 7.01042C13.902 7.00351 13.8844 6.99995 13.8666 6.99996Z" fill="white"/>
</svg>
