<svg width="18" height="18" viewBox="0 0 18 18" fill="none" xmlns="http://www.w3.org/2000/svg">
<path d="M3.32364 14.3572C3.36829 14.3572 3.41293 14.3527 3.45757 14.346L7.21204 13.6875C7.25668 13.6786 7.29909 13.6585 7.33034 13.625L16.7924 4.16296C16.8131 4.14231 16.8295 4.11778 16.8407 4.09078C16.8519 4.06377 16.8577 4.03483 16.8577 4.00559C16.8577 3.97636 16.8519 3.94741 16.8407 3.92041C16.8295 3.89341 16.8131 3.86888 16.7924 3.84823L13.0826 0.136174C13.0402 0.0937631 12.9844 0.0714417 12.9241 0.0714417C12.8638 0.0714417 12.808 0.0937631 12.7656 0.136174L3.30355 9.59823C3.27007 9.63171 3.24998 9.67189 3.24105 9.71653L2.58257 13.471C2.56086 13.5906 2.56862 13.7136 2.60518 13.8295C2.64174 13.9455 2.706 14.0507 2.79239 14.1362C2.93971 14.279 3.12498 14.3572 3.32364 14.3572ZM4.82811 10.4643L12.9241 2.37055L14.5603 4.00671L6.46427 12.1005L4.47989 12.4509L4.82811 10.4643ZM17.2143 16.2322H0.785697C0.390608 16.2322 0.0714111 16.5514 0.0714111 16.9464V17.75C0.0714111 17.8482 0.151768 17.9286 0.249983 17.9286H17.75C17.8482 17.9286 17.9286 17.8482 17.9286 17.75V16.9464C17.9286 16.5514 17.6094 16.2322 17.2143 16.2322Z" fill="#344054"/>
</svg>
