<svg width="12" height="12" viewBox="0 0 12 12" fill="none" xmlns="http://www.w3.org/2000/svg">
<path d="M2.18544 9.6C2.21544 9.6 2.24544 9.597 2.27544 9.5925L4.79844 9.15C4.82844 9.144 4.85694 9.1305 4.87794 9.108L11.2364 2.7495C11.2503 2.73562 11.2614 2.71914 11.2689 2.70099C11.2764 2.68285 11.2803 2.6634 11.2803 2.64375C11.2803 2.6241 11.2764 2.60465 11.2689 2.58651C11.2614 2.56836 11.2503 2.55188 11.2364 2.538L8.74344 0.0435C8.71494 0.015 8.67744 0 8.63694 0C8.59644 0 8.55894 0.015 8.53044 0.0435L2.17194 6.402C2.14944 6.4245 2.13594 6.4515 2.12994 6.4815L1.68744 9.0045C1.67285 9.08486 1.67806 9.16756 1.70263 9.24545C1.7272 9.32333 1.77038 9.39406 1.82844 9.4515C1.92744 9.5475 2.05194 9.6 2.18544 9.6ZM3.19644 6.984L8.63694 1.545L9.73644 2.6445L4.29594 8.0835L2.96244 8.319L3.19644 6.984ZM11.5199 10.86H0.479939C0.214439 10.86 -6.10352e-05 11.0745 -6.10352e-05 11.34V11.88C-6.10352e-05 11.946 0.053939 12 0.119939 12H11.8799C11.9459 12 11.9999 11.946 11.9999 11.88V11.34C11.9999 11.0745 11.7854 10.86 11.5199 10.86Z" fill="white"/>
</svg>
