<svg width="12" height="14" viewBox="0 0 12 14" fill="none" xmlns="http://www.w3.org/2000/svg">
<path d="M6.34725 3.56121H5.65516C5.59185 3.56121 5.54005 3.61301 5.54005 3.67632V7.6375C5.54005 7.67491 5.55732 7.70945 5.58753 7.73103L7.96597 9.46773C8.01777 9.50514 8.08971 9.49507 8.12712 9.44327L8.53864 8.88212C8.57749 8.82888 8.56598 8.75694 8.51418 8.72096L6.46236 7.2375V3.67632C6.46236 3.61301 6.41056 3.56121 6.34725 3.56121ZM9.50987 4.64324L11.766 5.19432C11.8379 5.21159 11.9084 5.15691 11.9084 5.08353L11.92 2.75977C11.92 2.66336 11.8092 2.60869 11.7343 2.66912L9.4667 4.44036C9.44956 4.45361 9.43652 4.47144 9.42906 4.49178C9.4216 4.51213 9.42004 4.53416 9.42454 4.55536C9.42905 4.57655 9.43945 4.59604 9.45455 4.61159C9.46964 4.62713 9.48882 4.6381 9.50987 4.64324ZM11.9228 8.97564L11.107 8.69507C11.0786 8.68532 11.0474 8.68708 11.0203 8.69999C10.9931 8.7129 10.9721 8.73592 10.9617 8.76413C10.9343 8.83751 10.9056 8.90946 10.8753 8.9814C10.6192 9.58716 10.2523 10.1325 9.78325 10.6001C9.31939 11.0654 8.76966 11.4363 8.16453 11.6922C7.53766 11.9572 6.86382 12.0933 6.18322 12.0922C5.49545 12.0922 4.82926 11.9584 4.20191 11.6922C3.59679 11.4363 3.04706 11.0654 2.5832 10.6001C2.11557 10.1325 1.74866 9.58716 1.4911 8.9814C1.22753 8.35418 1.09248 7.68044 1.09398 7.00009C1.09398 6.31231 1.22779 5.64468 1.49398 5.01734C1.7501 4.41158 2.11701 3.86625 2.58607 3.39862C3.04993 2.93332 3.59966 2.56244 4.20479 2.30653C4.82926 2.04034 5.49689 1.90652 6.18466 1.90652C6.87244 1.90652 7.53863 2.04034 8.16597 2.30653C8.7711 2.56244 9.32083 2.93332 9.78469 3.39862C9.93145 3.54682 10.0696 3.70078 10.1962 3.86337L11.0566 3.18999C9.92426 1.74249 8.16166 0.811551 6.18178 0.81299C2.73428 0.814429 -0.034091 3.61445 0.000441659 7.0634C0.0349743 10.4519 2.79039 13.1872 6.18466 13.1872C8.85375 13.1872 11.1271 11.4951 11.9933 9.12528C12.0149 9.06485 11.9833 8.99723 11.9228 8.97564Z" fill="white"/>
</svg>
