<svg width="30" height="30" viewBox="0 0 30 30" fill="none" xmlns="http://www.w3.org/2000/svg">
<path d="M23.7109 4.66715C24.0148 5.40217 24.5982 5.98642 25.3328 6.29145L27.9085 7.35837C28.6436 7.66285 29.2277 8.24688 29.5321 8.98196C29.8366 9.71705 29.8366 10.543 29.5321 11.2781L28.466 13.852C28.1614 14.5874 28.1609 15.4142 28.4669 16.1492L29.5312 18.7224C29.6822 19.0865 29.7599 19.4767 29.76 19.8708C29.76 20.265 29.6824 20.6553 29.5316 21.0194C29.3808 21.3835 29.1597 21.7143 28.881 21.993C28.6022 22.2716 28.2713 22.4926 27.9071 22.6433L25.3332 23.7095C24.5982 24.0134 24.0139 24.5968 23.7089 25.3314L22.642 27.9071C22.3375 28.6422 21.7535 29.2262 21.0184 29.5307C20.2833 29.8352 19.4574 29.8352 18.7223 29.5307L16.1484 28.4646C15.4133 28.1608 14.5876 28.1614 13.853 28.4663L11.2772 29.5317C10.5425 29.8355 9.71731 29.8352 8.98283 29.531C8.24834 29.2267 7.66464 28.6434 7.35995 27.9091L6.29271 25.3326C5.98879 24.5975 5.40542 24.0133 4.67085 23.7083L2.09507 22.6413C1.36031 22.337 0.776463 21.7533 0.471868 21.0187C0.167274 20.284 0.166861 19.4585 0.470719 18.7235L1.53688 16.1496C1.84061 15.4145 1.83999 14.5888 1.53515 13.8542L0.470526 11.2766C0.319583 10.9125 0.24186 10.5222 0.241797 10.1281C0.241733 9.73397 0.319332 9.34369 0.470157 8.97956C0.620984 8.61544 0.842081 8.2846 1.12082 8.00595C1.39955 7.72731 1.73046 7.50632 2.09463 7.35561L4.66856 6.28945C5.40295 5.98579 5.98685 5.40316 6.2921 4.66944L7.35902 2.09366C7.6635 1.35857 8.24753 0.774553 8.98261 0.470071C9.7177 0.165589 10.5436 0.165589 11.2787 0.470071L13.8526 1.53623C14.5877 1.83996 15.4134 1.83934 16.148 1.5345L18.7249 0.471724C19.4599 0.167413 20.2856 0.167475 21.0206 0.471897C21.7555 0.776319 22.3395 1.36017 22.644 2.09507L23.7112 4.67161L23.7109 4.66715Z" fill="#13C2C2"/>
</svg>
