<svg width="14" height="14" viewBox="0 0 14 14" fill="none" xmlns="http://www.w3.org/2000/svg">
<path d="M12.5335 10.3646H11.4125C11.336 10.3646 11.2642 10.3981 11.2164 10.4571C11.1048 10.5926 10.9852 10.7234 10.8592 10.8477C10.344 11.3635 9.73375 11.7745 9.06217 12.058C8.3664 12.3519 7.61858 12.5026 6.86329 12.5013C6.0995 12.5013 5.35963 12.3514 4.66441 12.058C3.99283 11.7745 3.38256 11.3635 2.86735 10.8477C2.35122 10.3338 1.93967 9.72455 1.6555 9.05387C1.3605 8.35865 1.21221 7.62037 1.21221 6.85658C1.21221 6.09279 1.3621 5.35452 1.6555 4.65929C1.93933 3.98799 2.34753 3.38366 2.86735 2.86543C3.38717 2.3472 3.99151 1.93899 4.66441 1.65517C5.35963 1.36177 6.0995 1.21188 6.86329 1.21188C7.62708 1.21188 8.36695 1.36017 9.06217 1.65517C9.73507 1.93899 10.3394 2.3472 10.8592 2.86543C10.9852 2.9914 11.1032 3.12215 11.2164 3.25609C11.2642 3.31509 11.3376 3.34858 11.4125 3.34858H12.5335C12.634 3.34858 12.6961 3.23696 12.6403 3.15245C11.4173 1.25174 9.27744 -0.00635405 6.84575 2.41393e-05C3.02521 0.00959143 -0.0379144 3.11099 0.000354714 6.92674C0.0386239 10.6819 3.09697 13.7131 6.86329 13.7131C9.2886 13.7131 11.4189 12.4566 12.6403 10.5607C12.6946 10.4762 12.634 10.3646 12.5335 10.3646ZM13.9511 6.75612L11.6884 4.97023C11.6039 4.90326 11.4811 4.96385 11.4811 5.07069V6.28254H6.47422C6.40406 6.28254 6.34666 6.33995 6.34666 6.41011V7.30305C6.34666 7.37321 6.40406 7.43062 6.47422 7.43062H11.4811V8.64248C11.4811 8.74931 11.6055 8.8099 11.6884 8.74293L13.9511 6.95704C13.9663 6.94511 13.9786 6.92986 13.9871 6.91245C13.9956 6.89505 14 6.87594 14 6.85658C14 6.83722 13.9956 6.81811 13.9871 6.80071C13.9786 6.7833 13.9663 6.76806 13.9511 6.75612Z" fill="white"/>
</svg>
