<svg width="16" height="16" viewBox="0 0 16 16" fill="none" xmlns="http://www.w3.org/2000/svg">
<path d="M1.79486 15.6244C1.41154 15.6244 1.07915 15.4837 0.797676 15.2023C0.516217 14.9208 0.375488 14.5884 0.375488 14.2051V1.79474C0.375488 1.41006 0.516217 1.07649 0.797676 0.794049C1.07915 0.511591 1.41154 0.370361 1.79486 0.370361H14.2052C14.5899 0.370361 14.9234 0.511591 15.2059 0.794049C15.4883 1.07649 15.6296 1.41006 15.6296 1.79474V14.2051C15.6296 14.5884 15.4883 14.9208 15.2059 15.2023C14.9234 15.4837 14.5899 15.6244 14.2052 15.6244H1.79486ZM1.79486 14.2051H7.37503V1.79474H1.79486V14.2051ZM8.62503 14.2051H14.2052V7.97907H8.62503V14.2051ZM8.62503 6.72907H14.2052V1.79474H8.62503V6.72907Z" fill="#0065D9"/>
</svg>
