<svg width="30" height="30" viewBox="0 0 30 30" fill="none" xmlns="http://www.w3.org/2000/svg">
<path d="M23.7109 4.66715C24.0148 5.40217 24.5982 5.98642 25.3328 6.29145L27.9086 7.35837C28.6436 7.66285 29.2277 8.24688 29.5321 8.98196C29.8366 9.71705 29.8366 10.543 29.5321 11.2781L28.466 13.852C28.1614 14.5874 28.1609 15.4142 28.467 16.1492L29.5313 18.7224C29.6822 19.0865 29.7599 19.4767 29.76 19.8708C29.7601 20.265 29.6825 20.6553 29.5316 21.0194C29.3808 21.3835 29.1597 21.7143 28.881 21.993C28.6022 22.2716 28.2713 22.4926 27.9072 22.6433L25.3332 23.7095C24.5982 24.0134 24.0139 24.5968 23.7089 25.3314L22.642 27.9071C22.3375 28.6422 21.7535 29.2262 21.0184 29.5307C20.2833 29.8352 19.4574 29.8352 18.7223 29.5307L16.1484 28.4646C15.4133 28.1608 14.5876 28.1614 13.853 28.4663L11.2772 29.5317C10.5425 29.8355 9.71733 29.8352 8.98284 29.531C8.24835 29.2267 7.66466 28.6434 7.35997 27.9091L6.29273 25.3326C5.98881 24.5975 5.40543 24.0133 4.67087 23.7083L2.09509 22.6413C1.36033 22.337 0.776478 21.7533 0.471883 21.0187C0.167289 20.284 0.166876 19.4585 0.470735 18.7235L1.53689 16.1496C1.84062 15.4145 1.84 14.5888 1.53517 13.8542L0.470541 11.2766C0.319598 10.9125 0.241875 10.5222 0.241812 10.1281C0.241748 9.73397 0.319347 9.34369 0.470173 8.97956C0.620999 8.61544 0.842096 8.2846 1.12083 8.00595C1.39957 7.72731 1.73047 7.50632 2.09465 7.35561L4.66858 6.28945C5.40297 5.98579 5.98687 5.40316 6.29212 4.66944L7.35904 2.09366C7.66352 1.35857 8.24754 0.774553 8.98263 0.470071C9.71771 0.165589 10.5436 0.165589 11.2787 0.470071L13.8527 1.53623C14.5878 1.83996 15.4134 1.83934 16.148 1.5345L18.7249 0.471724C19.4599 0.167413 20.2856 0.167475 21.0206 0.471897C21.7555 0.776319 22.3395 1.36017 22.644 2.09507L23.7112 4.67161L23.7109 4.66715Z" fill="#FAAD14"/>
</svg>
