<svg width="12" height="14" viewBox="0 0 12 14" fill="none" xmlns="http://www.w3.org/2000/svg">
<path d="M9.695 3.605V1.26H11.2C11.277 1.26 11.34 1.197 11.34 1.12V0.14C11.34 0.063 11.277 0 11.2 0H0.14C0.063 0 0 0.063 0 0.14V1.12C0 1.197 0.063 1.26 0.14 1.26H1.645V3.605C1.645 5.03125 2.387 6.286 3.507 7C2.387 7.714 1.645 8.96875 1.645 10.395V12.74H0.14C0.063 12.74 0 12.803 0 12.88V13.86C0 13.937 0.063 14 0.14 14H11.2C11.277 14 11.34 13.937 11.34 13.86V12.88C11.34 12.803 11.277 12.74 11.2 12.74H9.695V10.395C9.695 8.96875 8.953 7.714 7.833 7C8.953 6.286 9.695 5.03125 9.695 3.605ZM8.435 10.395V12.74H2.905V10.395C2.905 9.6565 3.192 8.96175 3.71525 8.44025C4.23675 7.917 4.9315 7.63 5.67 7.63C6.4085 7.63 7.10325 7.917 7.62475 8.44025C8.148 8.96175 8.435 9.6565 8.435 10.395ZM8.435 3.605C8.435 4.3435 8.148 5.03825 7.62475 5.55975C7.10325 6.083 6.4085 6.37 5.67 6.37C4.9315 6.37 4.23675 6.083 3.71525 5.55975C3.4574 5.30387 3.25299 4.99929 3.11389 4.66371C2.9748 4.32814 2.90379 3.96826 2.905 3.605V1.26H8.435V3.605Z" fill="white"/>
</svg>
